HIERARCHY
ROOT Hips
{
	OFFSET	0.00	0.00	0.00
	CHANNELS 6 Xposition Yposition Zposition Zrotation Xrotation Yrotation
	JOINT LeftUpLeg
	{
		OFFSET	 0.126116	-0.014019	-0.065224
		CHANNELS 3 Zrotation Xrotation Yrotation
		JOINT LeftLeg
		{
			OFFSET	 0.000000	 0.000000	 0.569914
			CHANNELS 3 Zrotation Xrotation Yrotation
			JOINT LeftFoot
			{
				OFFSET	 0.000000	 0.000000	 0.544423
				CHANNELS 3 Zrotation Xrotation Yrotation
				JOINT LeftToeBase
				{
					OFFSET	 0.000000	 0.000000	 0.207117
					CHANNELS 3 Zrotation Xrotation Yrotation
					End Site
					{
						OFFSET	 0.000000	 0.000000	 0.207117
					}
				}
			}
		}
	}
	JOINT RightUpLeg
	{
		OFFSET	-0.124023	-0.008373	-0.065224
		CHANNELS 3 Zrotation Xrotation Yrotation
		JOINT RightLeg
		{
			OFFSET	 0.000000	 0.000000	 0.570047
			CHANNELS 3 Zrotation Xrotation Yrotation
			JOINT RightFoot
			{
				OFFSET	 0.000000	 0.000000	 0.544354
				CHANNELS 3 Zrotation Xrotation Yrotation
				JOINT RightToeBase
				{
					OFFSET	 0.000000	 0.000000	 0.207540
					CHANNELS 3 Zrotation Xrotation Yrotation
					End Site
					{
						OFFSET	 0.000000	 0.000000	 0.207540
					}
				}
			}
		}
	}
	JOINT Spine
	{
		OFFSET	 0.000184	-0.007763	 0.117403
		CHANNELS 3 Zrotation Xrotation Yrotation
		JOINT Spine1
		{
			OFFSET	 0.000000	 0.000000	 0.137269
			CHANNELS 3 Zrotation Xrotation Yrotation
			JOINT Spine2
			{
				OFFSET	 0.000000	 0.000000	 0.156879
				CHANNELS 3 Zrotation Xrotation Yrotation
				JOINT LeftShoulder
				{
					OFFSET	 0.080501	-0.002496	 0.160144
					CHANNELS 3 Zrotation Xrotation Yrotation
					JOINT LeftArm
					{
						OFFSET	 0.000000	 0.000000	 0.164363
						CHANNELS 3 Zrotation Xrotation Yrotation
						JOINT LeftForeArm
						{
							OFFSET	 0.000000	 0.000000	 0.364576
							CHANNELS 3 Zrotation Xrotation Yrotation
							JOINT LeftHand
							{
								OFFSET	 0.000000	 0.000000	 0.360812
								CHANNELS 3 Zrotation Xrotation Yrotation
								JOINT LeftHandIndex1
								{
									OFFSET	 0.000000	 0.000000	 0.086006
									CHANNELS 3 Zrotation Xrotation Yrotation
									JOINT LeftHandIndex2
									{
										OFFSET	 0.000000	 0.000000	 0.047236
										CHANNELS 3 Zrotation Xrotation Yrotation
										JOINT LeftHandIndex3
										{
											OFFSET	-0.004284	-0.000551	 0.038166
											CHANNELS 3 Zrotation Xrotation Yrotation
											End Site
											{
												OFFSET	-0.004284	-0.000551	 0.038166
											}
										}
									}
								}
							}
						}
					}
				}
				JOINT Neck
				{
					OFFSET	 0.000000	 0.000000	 0.176489
					CHANNELS 3 Zrotation Xrotation Yrotation
					JOINT Head
					{
						OFFSET	 0.000000	-0.001747	 0.077940
						CHANNELS 3 Zrotation Xrotation Yrotation
						End Site
						{
							OFFSET	 0.000000	-0.001747	 0.077940
						}
					}
				}
				JOINT RightShoulder
				{
					OFFSET	-0.080363	 0.000306	 0.159706
					CHANNELS 3 Zrotation Xrotation Yrotation
					JOINT RightArm
					{
						OFFSET	 0.000000	 0.000000	 0.164196
						CHANNELS 3 Zrotation Xrotation Yrotation
						JOINT RightForeArm
						{
							OFFSET	 0.000000	 0.000000	 0.365611
							CHANNELS 3 Zrotation Xrotation Yrotation
							JOINT RightHand
							{
								OFFSET	 0.000000	 0.000000	 0.360648
								CHANNELS 3 Zrotation Xrotation Yrotation
								JOINT RightHandIndex1
								{
									OFFSET	 0.000000	 0.000000	 0.069977
									CHANNELS 3 Zrotation Xrotation Yrotation
									JOINT RightHandIndex2
									{
										OFFSET	 0.000000	 0.000000	 0.052305
										CHANNELS 3 Zrotation Xrotation Yrotation
										JOINT RightHandIndex3
										{
											OFFSET	 0.009002	-0.000782	 0.042196
											CHANNELS 3 Zrotation Xrotation Yrotation
											End Site
											{
												OFFSET	 0.009002	-0.000782	 0.042196
											}
										}
									}
								}
							}
						}
					}
				}
			}
		}
	}
}
MOTION
Frames:    9
Frame Time: 0.03333334
 0.013879	 0.066354	 1.202438	 4.040472	-1.688071	-3.022527	-2.793720	-12.799750	-170.983500	 0.310334	-38.728100	-0.032553	 47.989370	 80.229440	-51.502540	-2.371288	 31.294950	-0.062702	 0.693525	-28.454470	-175.545800	 10.199400	-53.087030	 8.782508	 12.899240	 70.669050	-8.529915	 2.357853	 33.163100	 0.107022	-3.819323	 8.900851	 1.923897	-1.092447	 2.317310	-0.285862	 0.282256	-2.224015	 0.159283	-93.771410	 58.847840	 175.758000	 16.109560	 36.927210	-42.368480	-0.387203	-0.058734	-0.499230	-1.581510	-24.965740	-6.497509	-4.870925	 19.204830	-2.784603	-3.886633	 21.407390	 2.207942	-4.808094	 5.547427	 0.146857	-0.126314	-5.014939	 0.158455	-1.970934	 2.260234	 2.782982	 89.832470	 61.581440	-179.880200	-21.749160	 54.395250	 11.860330	-1.149554	-2.655256	 14.026190	-4.685277	-11.095370	 0.799626	 6.304474	 25.993750	-0.577360	 1.727864	 45.943610	-6.852109	 0.351271	 25.038570	 3.657917
 0.013153	 0.053859	 1.201983	 4.554031	-1.429255	-3.009179	-3.218118	-12.417650	-171.048100	 0.721319	-38.628020	 0.184203	 49.319960	 80.514200	-53.112730	-2.370428	 31.442340	-0.066019	-0.430639	-29.795900	-175.394700	 10.522390	-52.029750	 8.936151	 16.462230	 73.525190	-12.703410	 2.358372	 33.087380	 0.105260	-4.419876	 8.779257	 1.847551	-1.104301	 2.174456	-0.254560	 0.203433	-2.259530	 0.166479	-93.865790	 58.901860	 175.550900	 16.112290	 36.026960	-42.941920	-1.092655	-0.052115	-0.611993	-2.361371	-26.820730	-7.739435	-4.870527	 19.224370	-2.787804	-3.882523	 21.460080	 2.203763	-4.807154	 5.558566	 0.146209	-0.098225	-5.048475	 0.172754	-1.953615	 2.218792	 2.678537	 89.802940	 61.618160	-179.950500	-21.465920	 54.848380	 10.778110	-1.117703	-2.743849	 14.658960	-4.237649	-12.612300	 0.784148	 6.297966	 25.325280	-0.556908	 1.821265	 45.214660	-6.935771	 0.456548	 24.581230	 3.603760
 0.012161	 0.034885	 1.201287	 5.117720	-1.124369	-3.000061	-3.886112	-11.690560	-171.171300	 1.018504	-38.369140	 0.413283	 51.743690	 80.952240	-55.839870	-2.369458	 31.604280	-0.069686	-1.618641	-31.462390	-175.195800	 10.660270	-49.941090	 8.787301	 20.849540	 75.518930	-17.807860	 2.358907	 33.009250	 0.103434	-5.102561	 8.627993	 1.760817	-1.142360	 2.101379	-0.223706	 0.116061	-2.339444	 0.176400	-93.972110	 58.958690	 175.317200	 15.815100	 34.783870	-43.728960	-1.815069	-0.044378	-0.738562	-3.342823	-28.846040	-9.162304	-4.869738	 19.253860	-2.791660	-3.877734	 21.521320	 2.198902	-4.806051	 5.571517	 0.145450	-0.067468	-5.084149	 0.190476	-1.936916	 2.173941	 2.566819	 89.768780	 61.663020	 179.968100	-21.162810	 55.454540	 9.398098	-1.081823	-2.832194	 15.291140	-3.772654	-14.294420	 0.790234	 6.290617	 24.570990	-0.537376	 1.922423	 44.400470	-7.025997	 0.578990	 24.044430	 3.541638
 0.010948	 0.010230	 1.200265	 5.634501	-0.637911	-3.022318	-4.472386	-10.730930	-171.290700	 1.222232	-37.897680	 0.534124	 54.759920	 81.367460	-59.042020	-2.368581	 31.750040	-0.072993	-3.000977	-33.347360	-175.050100	 10.805390	-46.506730	 8.442803	 23.925000	 76.471920	-21.698940	 2.358995	 32.995640	 0.103125	-5.730226	 8.307882	 1.636726	-1.214335	 2.096749	-0.131791	 0.021500	-2.459500	 0.156100	-94.100300	 58.979440	 175.041200	 15.117490	 33.308560	-44.592190	-2.255328	-0.037718	-0.875652	-4.115547	-31.110990	-10.241040	-4.865229	 19.369130	-2.799227	-3.870494	 21.613760	 2.191540	-4.804423	 5.590720	 0.144323	-0.041125	-5.103395	 0.228201	-1.946516	 2.140685	 2.497212	 89.718950	 61.753040	 179.848900	-20.820090	 56.185590	 7.925146	-1.250225	-2.905467	 15.575700	-3.428208	-16.102700	 0.781771	 6.277994	 23.671340	-0.549950	 2.028219	 43.520360	-7.119909	 0.773530	 23.180960	 3.444880
 0.009831	-0.012560	 1.199149	 6.033978	-0.240276	-3.061451	-4.960315	-9.723039	-171.385300	 1.379310	-37.339770	 0.622712	 57.714190	 81.735250	-62.139420	-2.367803	 31.878460	-0.075903	-4.126063	-34.605600	-175.018000	 10.688010	-42.762580	 7.827358	 26.817790	 76.746530	-25.288040	 2.359199	 32.965850	 0.102430	-6.244473	 8.037855	 1.551561	-1.283908	 2.138267	-0.061455	-0.053482	-2.573066	 0.140168	-94.203640	 58.994190	 174.818600	 14.417450	 32.013570	-45.342510	-2.634226	-0.031230	-0.992050	-4.858957	-32.965760	-11.130960	-4.861040	 19.473630	-2.805573	-3.864244	 21.693290	 2.185193	-4.802690	 5.611136	 0.143128	-0.020932	-5.121199	 0.259117	-1.956738	 2.113916	 2.445780	 89.675510	 61.826890	 179.744300	-20.495330	 56.779230	 6.769908	-1.431643	-2.905050	 15.456930	-3.170904	-17.582140	 0.764482	 6.267017	 22.914900	-0.562720	 2.112292	 42.799230	-7.194180	 0.936653	 22.446910	 3.365627
 0.008672	-0.041779	 1.197423	 6.276752	 0.218109	-3.278228	-5.291750	-8.205539	-171.325700	 1.482577	-36.325500	 0.669350	 61.749850	 82.114100	-66.297680	-2.366339	 32.114110	-0.081275	-4.769947	-35.609020	-174.783600	 10.479080	-37.288520	 6.863335	 25.522310	 74.878760	-24.835210	 2.360627	 32.754200	 0.097525	-6.703904	 7.645493	 1.622863	-1.355683	 2.372492	 0.023618	-0.119572	-2.736553	 0.106228	-94.310020	 58.988270	 174.592800	 13.439420	 30.483360	-46.289500	-3.397419	-0.019126	-1.132057	-5.863107	-35.427030	-11.518900	-4.851457	 19.691200	-2.814399	-3.854071	 21.822480	 2.174860	-4.796900	 5.679321	 0.139130	-0.010703	-5.161643	 0.295193	-1.991018	 2.085965	 2.439565	 89.598440	 61.913720	 179.557900	-19.997580	 57.411160	 5.576899	-1.922592	-2.876687	 14.854560	-3.171782	-19.329670	 0.431274	 6.248630	 21.845580	-0.600243	 2.207934	 41.954770	-7.278274	 1.179551	 21.337030	 3.250869
 0.007414	-0.069232	 1.195276	 6.468330	 0.596229	-3.480534	-5.585390	-6.681687	-171.278100	 1.566256	-35.286060	 0.701085	 65.084720	 82.406430	-69.725850	-2.364322	 32.432020	-0.088561	-5.122957	-36.018880	-174.585500	 10.241010	-31.763300	 5.813264	 26.674860	 73.765660	-26.620370	 2.360317	 32.800640	 0.098601	-7.142493	 7.289486	 1.697982	-1.418882	 2.620470	 0.093231	-0.170506	-2.887229	 0.079645	-94.398640	 58.980880	 174.405100	 12.557150	 29.196170	-47.087510	-4.093262	-0.006791	-1.271647	-6.905862	-37.637560	-11.954980	-4.841742	 19.902480	-2.820973	-3.843520	 21.956050	 2.164140	-4.789486	 5.766618	 0.133999	 0.000626	-5.203710	 0.324172	-2.014805	 2.053856	 2.427618	 89.529050	 61.986270	 179.389300	-19.412380	 57.906910	 4.595667	-2.430784	-2.774353	 13.955650	-3.204851	-20.996490	 0.062758	 6.229441	 20.778500	-0.639367	 2.314877	 40.978640	-7.371783	 1.414721	 20.243450	 3.143567
 0.006083	-0.093785	 1.192619	 6.535724	 0.799606	-3.660495	-5.764522	-5.154675	-171.230500	 1.614652	-34.350730	 0.712136	 66.874110	 82.591860	-71.560560	-2.360546	 33.003300	-0.101742	-4.808625	-36.305670	-174.292200	 9.805753	-27.618390	 4.941090	 35.677700	 75.096790	-35.919510	 2.355175	 33.547520	 0.116001	-7.551254	 6.996233	 1.796244	-1.456305	 2.991846	 0.135837	-0.185336	-3.046977	 0.067014	-94.448220	 58.968240	 174.301500	 11.761770	 28.316040	-47.712940	-4.701014	 0.005920	-1.408851	-8.050409	-39.478810	-12.412310	-4.830808	 20.117740	-2.822131	-3.830934	 22.114650	 2.151355	-4.776929	 5.914054	 0.125308	 0.015902	-5.254289	 0.336815	-2.012832	 2.007216	 2.400018	 89.472710	 62.027530	 179.252200	-18.663150	 58.258690	 3.639513	-2.984974	-2.696321	 13.198420	-3.311026	-22.668450	-0.485259	 6.207016	 19.611350	-0.686610	 2.464841	 39.550570	-7.501904	 1.659477	 19.085840	 3.035993
 0.004487	-0.117309	 1.189006	 6.623836	 0.945530	-3.818806	-5.964021	-3.671421	-171.206100	 1.681205	-33.585970	 0.734993	 68.403100	 82.773850	-73.140710	-2.355388	 33.743890	-0.119023	-4.373374	-37.279190	-173.952600	 9.712585	-25.186860	 4.496974	 44.876330	 75.823190	-45.434960	 2.349316	 34.346480	 0.134869	-7.987293	 6.802872	 1.881435	-1.488652	 3.265725	 0.180703	-0.194354	-3.197213	 0.052530	-94.491330	 58.951290	 174.212500	 11.063910	 27.634860	-48.263180	-5.194534	 0.018629	-1.543955	-9.258735	-41.252320	-13.079610	-4.825949	 20.298620	-2.847811	-3.818036	 22.276600	 2.138253	-4.762765	 6.079979	 0.115486	 0.036880	-5.303411	 0.346969	-1.998203	 1.972702	 2.344110	 89.423430	 62.045440	 179.132400	-17.882420	 58.547070	 2.517387	-3.475941	-2.674526	 12.807910	-3.373780	-24.288690	-0.981022	 6.187091	 18.476880	-0.716708	 2.606085	 38.138790	-7.623311	 1.893687	 17.959840	 2.937072
